<?xml version="1.0" standalone="no"?><!DOCTYPE svg PUBLIC "-//W3C//DTD SVG 1.1//EN" "http://www.w3.org/Graphics/SVG/1.1/DTD/svg11.dtd"><svg t="1660054423648" class="icon" viewBox="0 0 1024 1024" version="1.1" xmlns="http://www.w3.org/2000/svg" p-id="90448" xmlns:xlink="http://www.w3.org/1999/xlink" width="200" height="200"><defs><style type="text/css">@font-face { font-family: feedback-iconfont; src: url("//at.alicdn.com/t/font_1031158_u69w8yhxdu.woff2?t=1630033759944") format("woff2"), url("//at.alicdn.com/t/font_1031158_u69w8yhxdu.woff?t=1630033759944") format("woff"), url("//at.alicdn.com/t/font_1031158_u69w8yhxdu.ttf?t=1630033759944") format("truetype"); }
</style></defs><path d="M380.05 938.27H120.84c-4.07 0-7.41-3.33-7.41-7.41V234.7c0-4.07 3.33-7.41 7.41-7.41h259.21v710.98z" fill="#FFC600" p-id="90449"></path><path d="M246.74 938.27h103.68c16.29 0 29.62-13.33 29.62-29.62V256.92c0-16.29-13.33-29.62-29.62-29.62H246.74v710.97z" fill="#FFA100" p-id="90450"></path><path d="M172.68 405.04c-8.15 0-14.81-6.67-14.81-14.81v-44.44c0-8.15 6.67-14.81 14.81-14.81s14.81 6.67 14.81 14.81v44.44c0 8.15-6.66 14.81-14.81 14.81zM172.68 893.84c-8.15 0-14.81-6.67-14.81-14.81v-370.3c0-8.15 6.67-14.81 14.81-14.81s14.81 6.67 14.81 14.81v370.3c0 8.14-6.66 14.81-14.81 14.81z" fill="#FFEEB2" p-id="90451"></path><path d="M172.68 449.48m-14.81 0a14.81 14.81 0 1 0 29.62 0 14.81 14.81 0 1 0-29.62 0Z" fill="#FFEEB2" p-id="90452"></path><path d="M676.29 227.3c10.37 0 20.37 1.85 29.62 5.18V108.8c0-16.29-13.33-29.62-29.62-29.62s-29.62 13.33-29.62 29.62v123.68a87.414 87.414 0 0 1 29.62-5.18zM698.5 701.28h-44.44c-4.07 0-7.41-3.33-7.41-7.41V590.19c0-4.07 3.33-7.41 7.41-7.41h44.44c4.07 0 7.41 3.33 7.41 7.41v103.68c0 4.08-3.33 7.41-7.41 7.41z" fill="#717582" p-id="90453"></path><path d="M676.29 612.41m-14.81 0a14.81 14.81 0 1 0 29.62 0 14.81 14.81 0 1 0-29.62 0Z" fill="#DFE1E4" p-id="90454"></path><path d="M676.29 108.8m-14.81 0a14.81 14.81 0 1 0 29.62 0 14.81 14.81 0 1 0-29.62 0Z" fill="#DFE1E4" p-id="90455"></path><path d="M350.42 212.49H143.06c-24.44 0-44.44 20-44.44 44.44v651.73c0 24.44 20 44.44 44.44 44.44h207.37c24.44 0 44.44-20 44.44-44.44V256.92c-0.01-24.44-20.01-44.43-44.45-44.43z m0 710.97H143.06c-8.15 0-14.81-6.67-14.81-14.81V256.92c0-8.15 6.67-14.81 14.81-14.81h207.37c8.15 0 14.81 6.67 14.81 14.81v14.81h-74.06c-8.15 0-14.81 6.67-14.81 14.81 0 8.15 6.67 14.81 14.81 14.81h74.06v29.62H320.8c-8.15 0-14.81 6.67-14.81 14.81 0 8.15 6.67 14.81 14.81 14.81h44.44v29.62H320.8c-8.15 0-14.81 6.67-14.81 14.81 0 8.15 6.67 14.81 14.81 14.81h44.44v29.62H320.8c-8.15 0-14.81 6.67-14.81 14.81 0 8.15 6.67 14.81 14.81 14.81h44.44v29.62H320.8c-8.15 0-14.81 6.67-14.81 14.81s6.67 14.81 14.81 14.81h44.44v29.62h-74.06c-8.15 0-14.81 6.67-14.81 14.81 0 8.15 6.67 14.81 14.81 14.81h74.06v29.62H320.8c-8.15 0-14.81 6.67-14.81 14.81s6.67 14.81 14.81 14.81h44.44v29.62H320.8c-8.15 0-14.81 6.67-14.81 14.81s6.67 14.81 14.81 14.81h44.44v29.62H320.8c-8.15 0-14.81 6.67-14.81 14.81 0 8.15 6.67 14.81 14.81 14.81h44.44v29.62H320.8c-8.15 0-14.81 6.67-14.81 14.81 0 8.15 6.67 14.81 14.81 14.81h44.44v29.62h-74.06c-8.15 0-14.81 6.67-14.81 14.81s6.67 14.81 14.81 14.81h74.06v14.81c-0.01 8.23-6.67 14.9-14.82 14.9z" fill="#090418" p-id="90456"></path><path d="M172.68 286.55m-14.81 0a14.81 14.81 0 1 0 29.62 0 14.81 14.81 0 1 0-29.62 0Z" fill="#090418" p-id="90457"></path><path d="M172.68 168.05m-14.81 0a14.81 14.81 0 1 0 29.62 0 14.81 14.81 0 1 0-29.62 0Z" fill="#090418" p-id="90458"></path><path d="M439.29 538.35c8.15 0 14.81-6.67 14.81-14.81V256.92c0-57.03-46.66-103.68-103.68-103.68h-59.25c-8.15 0-14.81 6.67-14.81 14.81s6.67 14.81 14.81 14.81h59.25c40.73 0 74.06 33.33 74.06 74.06v266.62c0 8.14 6.67 14.81 14.81 14.81z" fill="#090418" p-id="90459"></path><path d="M231.93 168.05m-14.81 0a14.81 14.81 0 1 0 29.62 0 14.81 14.81 0 1 0-29.62 0Z" fill="#090418" p-id="90460"></path><path d="M926.98 933.09L821.81 656.84h32.22c8.15 0 14.81-6.67 14.81-14.81s-6.67-14.81-14.81-14.81H810.7l-84.06-220.33c31.85-17.77 53.32-51.84 53.32-90.72 0-41.1-24.44-77.02-59.25-93.69V108.8c0-24.44-20-44.44-44.44-44.44-24.44 0-44.44 20-44.44 44.44v113.68c-34.81 16.66-59.25 52.21-59.25 93.69 0 38.88 21.48 72.95 53.32 90.72l-84.06 220.33h-43.32c-8.15 0-14.81 6.67-14.81 14.81s6.67 14.81 14.81 14.81h32.22L425.59 933.09c-2.96 7.78 0.74 16.29 8.52 19.26 1.85 0.74 3.7 1.11 5.18 1.11 5.92 0 11.48-3.7 13.7-9.63l109.24-286.61h69.62v14.81c0 24.44 20 44.44 44.44 44.44 24.44 0 44.44-20 44.44-44.44v-14.81h69.62l109.24 286.61c2.22 5.92 7.78 9.63 13.7 9.63 1.85 0 3.7-0.37 5.18-1.11 7.77-2.97 11.47-11.86 8.51-19.26zM661.47 108.8c0-8.15 6.67-14.81 14.81-14.81 8.15 0 14.81 6.67 14.81 14.81v104.8c-4.81-0.74-9.63-1.11-14.81-1.11s-10 0.37-14.81 1.11V108.8z m-59.24 207.37c0-40.73 33.33-74.06 74.06-74.06s74.06 33.33 74.06 74.06-33.33 74.06-74.06 74.06-74.06-33.33-74.06-74.06z m88.87 355.49c0 8.15-6.67 14.81-14.81 14.81-8.15 0-14.81-6.67-14.81-14.81v-59.25c0-8.15 6.67-14.81 14.81-14.81 8.15 0 14.81 6.67 14.81 14.81v59.25z m29.62-44.44v-14.81c0-24.44-20-44.44-44.44-44.44-24.44 0-44.44 20-44.44 44.44v14.81H573.7l79.98-209.96c7.41 1.48 14.81 2.59 22.59 2.59s15.18-1.11 22.59-2.59l79.98 209.96h-58.12z" fill="#090418" p-id="90461"></path><path d="M571.86 756.46m-14.81 0a14.81 14.81 0 1 0 29.62 0 14.81 14.81 0 1 0-29.62 0Z" fill="#090418" p-id="90462"></path><path d="M550.75 811.63m-14.81 0a14.81 14.81 0 1 0 29.62 0 14.81 14.81 0 1 0-29.62 0Z" fill="#090418" p-id="90463"></path><path d="M530.02 866.8m-14.81 0a14.81 14.81 0 1 0 29.62 0 14.81 14.81 0 1 0-29.62 0Z" fill="#090418" p-id="90464"></path></svg>