<?xml version="1.0" standalone="no"?><!DOCTYPE svg PUBLIC "-//W3C//DTD SVG 1.1//EN" "http://www.w3.org/Graphics/SVG/1.1/DTD/svg11.dtd"><svg t="1667981253372" class="icon" viewBox="0 0 1024 1024" version="1.1" xmlns="http://www.w3.org/2000/svg" p-id="9770" xmlns:xlink="http://www.w3.org/1999/xlink" width="200" height="200"><path d="M344.61 228.29c-22.53-32.262-59.496-51.524-98.892-51.524a120.188 120.188 0 0 0-64.114 18.54l-181.6 114.328v143.17h246.97c65.806 0 119.346-53.538 119.346-119.346v-36.168c-0.002-24.806-7.508-48.666-21.71-69z m9.154 105.166c0 58.886-47.908 106.792-106.792 106.792H12.558v-123.684l175.732-110.636a107.68 107.68 0 0 1 57.428-16.61c35.296 0 68.418 17.256 88.602 46.16 12.722 18.214 19.444 39.588 19.444 61.81v36.168z" fill="#4A555F" p-id="9771"></path><path d="M328.6 209.668l-2.068-1.87c-22.138-20.012-50.846-31.032-80.842-31.032-22.652 0-44.806 6.414-64.07 18.548L0 309.64v75.95h239.246l1.442-0.826c3.592-2.05 87.956-51.594 87.956-172.222l-0.044-2.874z m-92.804 163.368H12.554v-56.466l175.756-110.634c17.258-10.872 37.098-16.618 57.38-16.618 26.06 0 51.03 9.278 70.384 25.976-1.206 103.108-69.762 151.008-80.278 157.742z" fill="#4A555F" p-id="9772"></path><path d="M245.692 205.702c-17.184 0-34.008 4.874-48.658 14.1l-168.098 105.816v31.038H230.88c15.618-10.97 64.66-51.762 68.578-133.604-15.528-11.248-34.284-17.35-53.766-17.35z" fill="#F58E6F" p-id="9773"></path><path d="M313.458 212.918l4.646 4.184a108.47 108.47 0 0 1 16.21 18.39 107.394 107.394 0 0 1 19.456 61.812v38.514l45.864-59.346V116.486l-86.176 96.432z m73.626 59.27l-20.756 26.856v-1.738c0-24.806-7.512-48.668-21.72-69.006a121.72 121.72 0 0 0-13.568-16.216l56.044-62.71v122.814zM202.132 241.646c-15.182 0-27.536 12.352-27.536 27.536 0 15.184 12.354 27.536 27.536 27.536 15.186 0 27.54-12.352 27.54-27.536-0.002-15.184-12.354-27.536-27.54-27.536z m0 42.518c-8.258 0-14.982-6.722-14.982-14.982s6.722-14.982 14.982-14.982c8.264 0 14.986 6.72 14.986 14.982s-6.724 14.982-14.986 14.982zM353.904 343.682l-2.386 11.568c-5.268 25.522-19.75 48.2-40.784 63.856l-5.738 4.27 43.98 45.366 64.304-64.256-59.376-60.804z m-30.086 81.072a118.906 118.906 0 0 0 37.138-55.878l34.666 35.5-46.51 46.474-25.294-26.096z" fill="#4A555F" p-id="9774"></path><path d="M912.816 457.532l-71.184-71.186c-11.268-11.242-26.24-17.432-42.162-17.432s-30.896 6.192-42.166 17.438l-51 51.044c-8.92 8.884-20.752 13.776-33.314 13.776h-80.898c-12.57 0-24.384-4.89-33.266-13.768l-55.95-55.95c-11.268-11.264-26.24-17.468-42.166-17.468-15.924 0-30.898 6.204-42.162 17.47l-73.4 73.4c-8.778 8.776-20.902 13.81-33.264 13.81H269.02l-60.372 57.876v108.472l73.976 70.632h102.132l-14.756-13.68c1.214 0.054 2.428 0.08 3.648 0.08 41.058 0 75.01-31.026 79.64-70.862l41.23 84.464h270.14l-5.59-11.512a97.74 97.74 0 0 0 44.23 10.59c36.334 0 68.446-20.076 85.324-49.94v44.838l9.578-5.922c23.85-14.744 38.088-40.254 38.088-68.234v-111.23c0.002-21.428-8.336-41.566-23.472-56.706z m10.92 167.936c0 19.57-8.262 37.708-22.558 50.426v-62.728l-0.208-6.276h-12.146l-0.396 5.854c-3.008 44.54-40.4 79.43-85.128 79.43a85.344 85.344 0 0 1-55.896-20.894l-23.138-20.068 20.338 41.884H502.358l-54.818-112.31-11.43 5.176a66.768 66.768 0 0 1 5.166 25.908c0 37.288-30.334 67.626-67.626 67.626-5.88 0-11.626-0.722-16.812-2.066l-31.472-9.714 27.384 25.382H287.66l-66.456-63.45v-97.746l52.86-50.676h37.822c15.668 0 31.03-6.374 42.14-17.488l73.4-73.4a46.762 46.762 0 0 1 33.286-13.792c12.574 0 24.394 4.898 33.29 13.792l55.95 55.95c11.25 11.25 26.216 17.446 42.142 17.446h80.898c15.904 0 30.882-6.192 42.186-17.446l51.004-51.048c8.892-8.876 20.714-13.764 33.29-13.764 12.574 0 24.396 4.888 33.29 13.76l71.18 71.18c12.766 12.768 19.796 29.754 19.796 47.83v111.222z" fill="#4A555F" p-id="9775"></path><path d="M893.602 476.778l-71.182-71.182c-6.152-6.11-14.27-9.5-22.932-9.5a32.186 32.186 0 0 0-22.932 9.5l-51.054 51.096c-14.06 13.976-32.724 21.676-52.518 21.676h-80.898c-19.834 0-38.5-7.698-52.476-21.718L483.66 400.7a32.164 32.164 0 0 0-22.932-9.5c-8.662 0-16.822 3.348-22.932 9.5l-73.4 73.4c-14.06 14.02-32.724 21.762-52.518 21.762h-31.93l-44.106 42.306v85.2l39.42 37.662-4.184-5.564v-87.502l58.544-58.754h92.356l58.502 58.754v46.95l31.008 63.524h185.558l-24.732-32.808v-107.672l72.018-72.27h113.656l51.094 51.262v-2.72c0.002-14.146-5.478-27.452-15.48-37.452z" fill="#FFD452" p-id="9776"></path><path d="M373.65 531.7c-44.204 0-80.166 35.962-80.166 80.168 0 44.204 35.962 80.168 80.166 80.168 44.206 0 80.168-35.964 80.168-80.168 0-44.206-35.964-80.168-80.168-80.168z m0 147.78c-37.282 0-67.612-30.33-67.612-67.614 0-37.282 30.332-67.614 67.612-67.614 37.282 0 67.614 30.332 67.614 67.614 0 37.284-30.332 67.614-67.614 67.614z" fill="#4A555F" p-id="9777"></path><path d="M373.65 558.888c-29.208 0-52.978 23.77-52.978 52.978 0 29.208 23.77 52.978 52.978 52.978 29.21 0 52.978-23.77 52.978-52.978 0-29.208-23.768-52.978-52.978-52.978z m-13.14 73.066a18.42 18.42 0 0 1-6.946-6.948c-12.596-22.722 10.504-45.822 33.226-33.226a18.446 18.446 0 0 1 6.946 6.948c12.596 22.722-10.504 45.822-33.226 33.226z" fill="#F58E6F" p-id="9778"></path><path d="M803.336 509.022c-53.956 0-97.854 43.898-97.854 97.854s43.898 97.854 97.854 97.854c53.956 0 97.854-43.898 97.854-97.854s-43.898-97.854-97.854-97.854z m0 183.156c-47.032 0-85.3-38.266-85.3-85.3s38.268-85.3 85.3-85.3c47.034 0 85.3 38.266 85.3 85.3s-38.266 85.3-85.3 85.3z" fill="#4A555F" p-id="9779"></path><path d="M803.342 536.208c-38.96 0-70.68 31.72-70.68 70.68 0 38.96 31.72 70.636 70.68 70.636s70.638-31.678 70.638-70.636c-0.002-38.96-31.68-70.68-70.638-70.68z m-16.822 100.892c-5.816-2.846-10.588-7.574-13.392-13.39-15.316-31.428 15.608-62.354 47.036-47.036 5.816 2.804 10.544 7.574 13.39 13.392 15.276 31.426-15.608 62.308-47.034 47.034z" fill="#F58E6F" p-id="9780"></path><path d="M803.336 566.348c-22.346 0-40.526 18.18-40.526 40.528s18.182 40.53 40.526 40.53 40.526-18.182 40.526-40.53-18.18-40.528-40.526-40.528z m0 68.504c-15.422 0-27.972-12.55-27.972-27.974s12.55-27.974 27.972-27.974 27.972 12.55 27.972 27.974-12.55 27.974-27.972 27.974zM447.556 580.782l-11.434 5.166c3.408 8.18 5.136 16.896 5.136 25.91 0 37.294-30.322 67.634-67.592 67.634-5.836 0-11.586-0.724-16.828-2.078l-31.434-9.64 94.63 87.612-57.14 89.826v62.304h100.052l86.468-117.994-101.858-208.74z m9.024 314.178h-81.132v-46.094l60.8-95.58-66.236-61.322c1.214 0.054 2.432 0.08 3.654 0.08 41.058 0 75.006-31.048 79.616-70.912l81.528 167.078-78.23 106.75z" fill="#4A555F" p-id="9781"></path><path d="M900.956 606.876h-12.146l-0.396 5.854c-3.004 44.542-40.384 79.432-85.094 79.432a85.366 85.366 0 0 1-55.934-20.896l-23.144-20.076 51.364 105.788-62.496 88.058v62.48h111.426l76.644-107.228v-187.134l-0.224-6.278z m-12.328 189.386L818.08 894.96h-92.414v-45.922l64.482-90.858-31.104-64.058a97.862 97.862 0 0 0 44.274 10.594c36.33 0 68.438-20.084 85.308-49.96v141.506zM254.006 894.96v-45.344l85.892-87.016-19.378-65.916-12.048 3.54 17.296 58.822-84.316 85.416v63.052h127.72v-12.554zM938.88 366.336l-28.402 26.982 44.614 71.746-31.36 27.034v124.346L1024 499.682v-55.618l-85.12-77.728z m72.566 128.696l-75.16 87.522v-84.706l35.136-30.292-44.882-72.18 12.512-11.884 72.394 66.11v45.43z" fill="#4A555F" p-id="9782"></path><path d="M247.73 840.762v12.554h68.36v47.922h12.554v-60.476z" fill="#4A555F" p-id="9783"></path><path d="M278.772 847.04h12.554v54.198h-12.554zM373.65 840.762v12.554h68.36v47.922h12.554v-60.476z" fill="#4A555F" p-id="9784"></path><path d="M404.692 847.04h12.554v54.198h-12.554zM719.388 840.762v12.554h68.362v47.922h12.554v-60.476z" fill="#4A555F" p-id="9785"></path><path d="M750.43 847.04h12.554v54.198h-12.554zM837.288 751.302h-54.41v12.554h50.528l57.956 39.602 7.086-10.366zM470.502 748.058H428.14v12.554h39.542l71.746 33.928 5.37-11.348zM384.982 754.546h-52.148v12.554h48.592l26.25 16.17 6.586-10.688zM373.65 581.946c-16.498 0-29.922 13.424-29.922 29.922 0 16.5 13.424 29.922 29.922 29.922s29.922-13.422 29.922-29.922-13.424-29.922-29.922-29.922z m0 47.288c-9.574 0-17.368-7.792-17.368-17.368 0-9.576 7.792-17.368 17.368-17.368 9.576 0 17.368 7.792 17.368 17.368 0 9.578-7.792 17.368-17.368 17.368zM860.61 459.398h-118.876l-75.676 75.986v112.358l40.688 54.004 10.028-7.556-38.162-50.648v-102.972l68.338-68.618h108.446l70.17 70.454 8.892-8.86z" fill="#4A555F" p-id="9786"></path><path d="M424.564 502.942h-97.566l-62.178 62.434v92.174l33.294 44.196 10.028-7.556-30.768-40.838v-82.79l54.838-55.066h87.138l54.842 55.066v93.616h12.556v-98.802zM599.034 457.452h12.554v33.874h-12.554zM621.47 457.452h12.554v33.874h-12.554z" fill="#4A555F" p-id="9787"></path><path d="M624.462 457.452h12.554v33.874h-12.554zM646.896 457.452h12.554v33.874h-12.554zM480.47 649.984v12.554h106.66v36.832h12.554v-49.386z" fill="#4A555F" p-id="9788"></path><path d="M581.636 517.18h-41.014c-14.822 0-26.836 12.016-26.836 26.836v41.014c0 14.822 12.016 26.836 26.836 26.836h41.014c14.822 0 26.836-12.016 26.836-26.836v-41.014c0-14.82-12.014-26.836-26.836-26.836z" fill="#F58E6F" p-id="9789"></path><path d="M581.638 510.902H540.62c-18.26 0-33.114 14.854-33.114 33.114v41.014c0 18.258 14.854 33.114 33.114 33.114h41.018c18.26 0 33.114-14.854 33.114-33.114v-41.014c0-18.258-14.856-33.114-33.114-33.114z m20.56 74.128c0 11.336-9.224 20.56-20.56 20.56H540.62c-11.336 0-20.56-9.224-20.56-20.56v-41.014c0-11.336 9.224-20.56 20.56-20.56h41.018c11.336 0 20.56 9.224 20.56 20.56v41.014z" fill="#4A555F" p-id="9790"></path><path d="M530.748 517.18h12.554v94.688h-12.554zM554.474 517.18h12.554v94.688h-12.554zM578.196 517.18h12.554v94.688h-12.554zM487.216 374.672l-81.396 81.394-25.598-25.6-8.876 8.876 34.474 34.48 90.272-90.272zM900.63 685.802l-11.46 5.12 62.002 138.786-28.79 65.252h-101.074v12.554h109.256l34.348-77.836z" fill="#4A555F" p-id="9791"></path><path d="M860.794 840.762v12.554h15.646v47.922h12.556v-60.476z" fill="#4A555F" p-id="9792"></path><path d="M69.104 894.96h936.458v12.554H69.104z" fill="#4A555F" p-id="9793"></path></svg>