<?xml version="1.0" standalone="no"?><!DOCTYPE svg PUBLIC "-//W3C//DTD SVG 1.1//EN" "http://www.w3.org/Graphics/SVG/1.1/DTD/svg11.dtd"><svg t="1660096989685" class="icon" viewBox="0 0 1024 1024" version="1.1" xmlns="http://www.w3.org/2000/svg" p-id="10685" xmlns:xlink="http://www.w3.org/1999/xlink" width="200" height="200"><defs><style type="text/css">@font-face { font-family: feedback-iconfont; src: url("//at.alicdn.com/t/font_1031158_u69w8yhxdu.woff2?t=1630033759944") format("woff2"), url("//at.alicdn.com/t/font_1031158_u69w8yhxdu.woff?t=1630033759944") format("woff"), url("//at.alicdn.com/t/font_1031158_u69w8yhxdu.ttf?t=1630033759944") format("truetype"); }
</style></defs><path d="M467.1808 888.032l175.8272-558.3872 176.1664 558.3872z" fill="#E9F2FE" p-id="10686"></path><path d="M822.368 888.032h-103.3408l-28.6528-93.888a16 16 0 0 0-19.968-10.624 15.9616 15.9616 0 0 0-10.6432 19.9296l22.2208 72.8128-144.3456-144.064 76.9472-76.8 5.984 19.5968a16.0128 16.0128 0 0 0 19.968 10.624 15.9616 15.9616 0 0 0 10.6432-19.9296L532.2688 276.032l-17.088-5.1648-17.088 5.1648-186.7584 612h-39.8784c-8.8384 0-16 7.1488-16 15.968a15.9872 15.9872 0 0 0 16 15.968l415.7184 0.0384 135.1936-0.0384c8.832 0 16-7.1488 16-15.968a15.9872 15.9872 0 0 0-16-15.968zM593.4272 586.0672l-55.7888-55.68 29.7408-29.6896 26.048 85.3696zM515.1808 329.6448l41.632 136.4352-41.8048 41.7216-41.5424-41.4656 41.7152-136.6912z m-52.2816 171.3152l29.4848 29.4272-55.3024 55.1936 25.8176-84.6208z m52.1088 52.0064L593.4912 631.296 515.008 709.6192 436.5312 631.2896 515.008 552.9664z m-99.3152 102.6944l76.6912 76.544-143.8592 143.5712 67.168-220.1152z m-207.68 232.3712c8.832 0 16 7.1488 16 15.968a15.9872 15.9872 0 0 1-16 15.968A15.9936 15.9936 0 0 1 192 904a15.9808 15.9808 0 0 1 16.0064-15.968z m306.9952-133.248l133.5104 133.248H381.504l133.5104-133.248z m141.888-31.5136a16.128 16.128 0 0 1 11.3152 4.6848 16.064 16.064 0 0 1 4.6912 11.2832c0 4.224-1.7152 8.32-4.6912 11.2896a16.0896 16.0896 0 0 1-11.3088 4.6784 15.9744 15.9744 0 0 1-16-15.968 16 16 0 0 1 16-15.968z" fill="#2A83FC" p-id="10687"></path><path d="M563.1744 231.2832c0-26.4192-21.5296-47.9104-48-47.9104-26.464 0-47.9936 21.4912-47.9936 47.9104 0 20.4032 14.0288 46.6688 48 46.6688 33.9648 0 48-26.2656 48-46.6688z m53.824-124.2048a16.0192 16.0192 0 0 1 22.624 0c33.2416 33.1776 51.552 77.28 51.552 124.1984 0 46.9184-18.304 91.0272-51.5456 124.2048a15.968 15.968 0 0 1-11.3152 4.672 15.9744 15.9744 0 0 1-11.3152-27.2576c27.2-27.136 42.176-63.232 42.176-101.6192 0-38.3872-14.976-74.4768-42.176-101.6192a15.9488 15.9488 0 0 1 0-22.5792z m-226.2656 0a16.0192 16.0192 0 0 1 22.624 0 15.9424 15.9424 0 0 1 0 22.5792c-27.2 27.1424-42.176 63.232-42.176 101.6192 0 38.3872 14.976 74.4768 42.176 101.6192a15.968 15.968 0 1 1-11.3088 27.264c-4.096 0-8.192-1.5616-11.3152-4.6784-33.2416-33.1776-51.552-77.2864-51.552-124.2048 0-46.912 18.304-91.0272 51.552-124.1984z m178.4256 47.744a16.0256 16.0256 0 0 1 22.6304 0c42.24 42.1568 42.24 110.7584 0 152.9152a15.9616 15.9616 0 0 1-11.3152 4.672 15.968 15.968 0 0 1-11.3152-27.2576c29.76-29.7024 29.76-78.0416 0-107.7504a15.9488 15.9488 0 0 1 0-22.5792z m-130.5856 0a16.0256 16.0256 0 0 1 22.624 0 15.9488 15.9488 0 0 1 0 22.5792c-29.76 29.7088-29.76 78.0416 0 107.7504a15.9488 15.9488 0 0 1 0 22.5856 15.9616 15.9616 0 0 1-11.3088 4.672c-4.096 0-8.192-1.5552-11.3152-4.672-42.24-42.1568-42.24-110.7584 0-152.9152z m76.608 60.4864a16 16 0 0 1 16 15.968 16 16 0 0 1-32 0 16 16 0 0 1 16-15.968z" fill="#2BD2FC" p-id="10688"></path></svg>