<?xml version="1.0" standalone="no"?><!DOCTYPE svg PUBLIC "-//W3C//DTD SVG 1.1//EN" "http://www.w3.org/Graphics/SVG/1.1/DTD/svg11.dtd"><svg t="1660051736321" class="icon" viewBox="0 0 1024 1024" version="1.1" xmlns="http://www.w3.org/2000/svg" p-id="51513" xmlns:xlink="http://www.w3.org/1999/xlink" width="200" height="200"><defs><style type="text/css">@font-face { font-family: feedback-iconfont; src: url("//at.alicdn.com/t/font_1031158_u69w8yhxdu.woff2?t=1630033759944") format("woff2"), url("//at.alicdn.com/t/font_1031158_u69w8yhxdu.woff?t=1630033759944") format("woff"), url("//at.alicdn.com/t/font_1031158_u69w8yhxdu.ttf?t=1630033759944") format("truetype"); }
</style></defs><path d="M184.6 916.4c-5 0-9-4-9-9V459.3c0-5 4-9 9-9h116.5V333.7c0-5 4-9 9-9h173.5c5 0 9 4 9 9v116.6h116.5c5 0 9 4 9 9v448.1c0 5-4 9-9 9H184.6z" fill="#FFE08A" p-id="51514"></path><path d="M483.6 333.7v125.6h125.5v448.1H184.6V459.3h125.5V333.7h173.5m0-18H310.1c-9.9 0-18 8.1-18 18v107.6H184.6c-9.9 0-18 8.1-18 18v448.1c0 9.9 8.1 18 18 18h424.5c9.9 0 18-8.1 18-18V459.3c0-9.9-8.1-18-18-18H501.6V333.7c0-9.9-8-18-18-18zM779 203.2c-0.7 0-1.5-0.3-2.1-0.8L703.6 133c-1.2-1.1-1.3-3-0.1-4.2 1.1-1.2 3-1.3 4.2-0.1l73.4 69.4c1.2 1.1 1.3 3 0.1 4.2-0.6 0.6-1.4 0.9-2.2 0.9z" fill="#330867" p-id="51515"></path><path d="M706 203.2c-0.8 0-1.6-0.3-2.2-0.9-1.1-1.2-1.1-3.1 0.1-4.2l73.4-69.4c1.2-1.1 3.1-1.1 4.2 0.1 1.1 1.2 1.1 3.1-0.1 4.2L708 202.4c-0.5 0.5-1.2 0.8-2 0.8zM779 280.2c-0.7 0-1.5-0.3-2.1-0.8L703.5 210c-1.2-1.1-1.3-3-0.1-4.2 1.1-1.2 3-1.3 4.2-0.1l73.4 69.4c1.2 1.1 1.3 3 0.1 4.2-0.5 0.5-1.3 0.9-2.1 0.9z" fill="#330867" p-id="51516"></path><path d="M706 280.2c-0.8 0-1.6-0.3-2.2-0.9-1.1-1.2-1.1-3.1 0.1-4.2l73.4-69.4c1.2-1.1 3.1-1.1 4.2 0.1 1.1 1.2 1.1 3.1-0.1 4.2L708 279.4c-0.5 0.5-1.2 0.8-2 0.8zM779 357.1c-0.7 0-1.5-0.3-2.1-0.8l-73.4-69.4c-1.2-1.1-1.3-3-0.1-4.2 1.1-1.2 3-1.3 4.2-0.1L781 352c1.2 1.1 1.3 3 0.1 4.2-0.5 0.6-1.3 0.9-2.1 0.9z" fill="#330867" p-id="51517"></path><path d="M706 357.1c-0.8 0-1.6-0.3-2.2-0.9-1.1-1.2-1.1-3.1 0.1-4.2l73.4-69.4c1.2-1.1 3.1-1.1 4.2 0.1 1.1 1.2 1.1 3.1-0.1 4.2L708 356.3c-0.5 0.5-1.2 0.8-2 0.8zM779 434.1c-0.7 0-1.5-0.3-2.1-0.8l-73.4-69.4c-1.2-1.1-1.3-3-0.1-4.2 1.1-1.2 3-1.3 4.2-0.1L781 429c1.2 1.1 1.3 3 0.1 4.2-0.5 0.5-1.3 0.9-2.1 0.9z" fill="#330867" p-id="51518"></path><path d="M706 434.1c-0.8 0-1.6-0.3-2.2-0.9-1.1-1.2-1.1-3.1 0.1-4.2l73.4-69.4c1.2-1.1 3.1-1.1 4.2 0.1 1.1 1.2 1.1 3.1-0.1 4.2L708 433.3c-0.5 0.5-1.2 0.8-2 0.8zM779 511c-0.7 0-1.5-0.3-2.1-0.8l-73.4-69.4c-1.2-1.1-1.3-3-0.1-4.2 1.1-1.2 3-1.3 4.2-0.1l73.4 69.4c1.2 1.1 1.3 3 0.1 4.2-0.5 0.6-1.3 0.9-2.1 0.9z" fill="#330867" p-id="51519"></path><path d="M706 511c-0.8 0-1.6-0.3-2.2-0.9-1.1-1.2-1.1-3.1 0.1-4.2l73.4-69.4c1.2-1.1 3.1-1.1 4.2 0.1 1.1 1.2 1.1 3.1-0.1 4.2L708 510.2c-0.5 0.5-1.2 0.8-2 0.8zM779 587.9c-0.7 0-1.5-0.3-2.1-0.8l-73.4-69.4c-1.2-1.1-1.3-3-0.1-4.2 1.1-1.2 3-1.3 4.2-0.1l73.4 69.4c1.2 1.1 1.3 3 0.1 4.2-0.5 0.6-1.3 0.9-2.1 0.9z" fill="#330867" p-id="51520"></path><path d="M706 587.9c-0.8 0-1.6-0.3-2.2-0.9-1.1-1.2-1.1-3.1 0.1-4.2l73.4-69.4c1.2-1.1 3.1-1.1 4.2 0.1 1.1 1.2 1.1 3.1-0.1 4.2L708 587.1c-0.5 0.6-1.2 0.8-2 0.8zM779 664.9c-0.7 0-1.5-0.3-2.1-0.8l-73.4-69.4c-1.2-1.1-1.3-3-0.1-4.2 1.1-1.2 3-1.3 4.2-0.1l73.4 69.4c1.2 1.1 1.3 3 0.1 4.2-0.5 0.6-1.3 0.9-2.1 0.9z" fill="#330867" p-id="51521"></path><path d="M706 664.9c-0.8 0-1.6-0.3-2.2-0.9-1.1-1.2-1.1-3.1 0.1-4.2l73.4-69.4c1.2-1.1 3.1-1.1 4.2 0.1 1.1 1.2 1.1 3.1-0.1 4.2L708 664.1c-0.5 0.5-1.2 0.8-2 0.8zM779 741.8c-0.7 0-1.5-0.3-2.1-0.8l-73.4-69.4c-1.2-1.1-1.3-3-0.1-4.2 1.1-1.2 3-1.3 4.2-0.1l73.4 69.4c1.2 1.1 1.3 3 0.1 4.2-0.5 0.6-1.3 0.9-2.1 0.9z" fill="#330867" p-id="51522"></path><path d="M706 741.8c-0.8 0-1.6-0.3-2.2-0.9-1.1-1.2-1.1-3.1 0.1-4.2l73.4-69.4c1.2-1.1 3.1-1.1 4.2 0.1 1.1 1.2 1.1 3.1-0.1 4.2L708.1 741c-0.6 0.6-1.3 0.8-2.1 0.8zM779 818.8c-0.7 0-1.5-0.3-2.1-0.8l-73.4-69.4c-1.2-1.1-1.3-3-0.1-4.2 1.1-1.2 3-1.3 4.2-0.1l73.4 69.4c1.2 1.1 1.3 3 0.1 4.2-0.5 0.6-1.3 0.9-2.1 0.9z" fill="#330867" p-id="51523"></path><path d="M706 818.8c-0.8 0-1.6-0.3-2.2-0.9-1.1-1.2-1.1-3.1 0.1-4.2l73.4-69.4c1.2-1.1 3.1-1.1 4.2 0.1 1.1 1.2 1.1 3.1-0.1 4.2L708.1 818c-0.6 0.5-1.3 0.8-2.1 0.8zM779 895.7c-0.7 0-1.5-0.3-2.1-0.8l-73.4-69.4c-1.2-1.1-1.3-3-0.1-4.2 1.1-1.2 3-1.3 4.2-0.1l73.4 69.4c1.2 1.1 1.3 3 0.1 4.2-0.5 0.6-1.3 0.9-2.1 0.9z" fill="#330867" p-id="51524"></path><path d="M706 895.7c-0.8 0-1.6-0.3-2.2-0.9-1.1-1.2-1.1-3.1 0.1-4.2l73.4-69.4c1.2-1.1 3.1-1.1 4.2 0.1 1.1 1.2 1.1 3.1-0.1 4.2L708 894.9c-0.5 0.6-1.2 0.8-2 0.8z" fill="#330867" p-id="51525"></path><path d="M779.5 924.2h-74c-5 0-9-4-9-9V107.3c0-5 4-9 9-9h74c5 0 9 4 9 9v807.9c0 5-4 9-9 9z m-65-18h56V116.3h-56v789.9z" fill="#330867" p-id="51526"></path><path d="M822.4 281c-0.7 0-1.5-0.3-2.1-0.8-1.2-1.1-1.3-3-0.1-4.2l69.4-73.4c1.1-1.2 3-1.3 4.2-0.1 1.2 1.1 1.3 3 0.1 4.2L824.5 280c-0.5 0.6-1.3 1-2.1 1z" fill="#330867" p-id="51527"></path><path d="M891.8 281.4c-0.8 0-1.6-0.3-2.2-0.9L820.2 207c-1.1-1.2-1.1-3.1 0.1-4.2 1.2-1.1 3.1-1.1 4.2 0.1l69.4 73.4c1.1 1.2 1.1 3.1-0.1 4.2-0.6 0.6-1.3 0.9-2 0.9zM745.4 281c-0.7 0-1.5-0.3-2.1-0.8-1.2-1.1-1.3-3-0.1-4.2l69.4-73.4c1.1-1.2 3-1.3 4.2-0.1 1.2 1.1 1.3 3 0.1 4.2L747.6 280c-0.6 0.6-1.4 1-2.2 1z" fill="#330867" p-id="51528"></path><path d="M814.8 281.4c-0.8 0-1.6-0.3-2.2-0.9L743.2 207c-1.1-1.2-1.1-3.1 0.1-4.2 1.2-1.1 3.1-1.1 4.2 0.1l69.4 73.4c1.1 1.2 1.1 3.1-0.1 4.2-0.5 0.6-1.3 0.9-2 0.9zM668.5 281c-0.7 0-1.5-0.3-2.1-0.8-1.2-1.1-1.3-3-0.1-4.2l69.4-73.4c1.1-1.2 3-1.3 4.2-0.1 1.2 1.1 1.3 3 0.1 4.2L670.7 280c-0.6 0.6-1.4 1-2.2 1z" fill="#330867" p-id="51529"></path><path d="M737.9 281.4c-0.8 0-1.6-0.3-2.2-0.9L666.3 207c-1.1-1.2-1.1-3.1 0.1-4.2 1.2-1.1 3.1-1.1 4.2 0.1l69.4 73.4c1.1 1.2 1.1 3.1-0.1 4.2-0.6 0.6-1.3 0.9-2 0.9zM591.5 281c-0.7 0-1.5-0.3-2.1-0.8-1.2-1.1-1.3-3-0.1-4.2l69.4-73.4c1.1-1.2 3-1.3 4.2-0.1 1.2 1.1 1.3 3 0.1 4.2L593.7 280c-0.6 0.6-1.4 1-2.2 1z" fill="#330867" p-id="51530"></path><path d="M660.9 281.4c-0.8 0-1.6-0.3-2.2-0.9L589.3 207c-1.1-1.2-1.1-3.1 0.1-4.2 1.2-1.1 3.1-1.1 4.2 0.1l69.4 73.4c1.1 1.2 1.1 3.1-0.1 4.2-0.5 0.6-1.2 0.9-2 0.9zM514.6 281c-0.7 0-1.5-0.3-2.1-0.8-1.2-1.1-1.3-3-0.1-4.2l69.4-73.4c1.1-1.2 3-1.3 4.2-0.1 1.2 1.1 1.3 3 0.1 4.2L516.8 280c-0.6 0.6-1.4 1-2.2 1z" fill="#330867" p-id="51531"></path><path d="M584 281.4c-0.8 0-1.6-0.3-2.2-0.9L512.4 207c-1.1-1.2-1.1-3.1 0.1-4.2 1.2-1.1 3.1-1.1 4.2 0.1l69.4 73.4c1.1 1.2 1.1 3.1-0.1 4.2-0.6 0.6-1.3 0.9-2 0.9zM437.6 281c-0.7 0-1.5-0.3-2.1-0.8-1.2-1.1-1.3-3-0.1-4.2l69.4-73.4c1.1-1.2 3-1.3 4.2-0.1 1.2 1.1 1.3 3 0.1 4.2L439.8 280c-0.6 0.6-1.4 1-2.2 1z" fill="#330867" p-id="51532"></path><path d="M507 281.4c-0.8 0-1.6-0.3-2.2-0.9L435.4 207c-1.1-1.2-1.1-3.1 0.1-4.2 1.2-1.1 3.1-1.1 4.2 0.1l69.4 73.4c1.1 1.2 1.1 3.1-0.1 4.2-0.5 0.6-1.2 0.9-2 0.9z" fill="#330867" p-id="51533"></path><path d="M360.7 281c-0.7 0-1.5-0.3-2.1-0.8-1.2-1.1-1.3-3-0.1-4.2l69.4-73.4c1.1-1.2 3-1.3 4.2-0.1 1.2 1.1 1.3 3 0.1 4.2L362.9 280c-0.6 0.6-1.4 1-2.2 1z" fill="#330867" p-id="51534"></path><path d="M430.1 281.4c-0.8 0-1.6-0.3-2.2-0.9L358.5 207c-1.1-1.2-1.1-3.1 0.1-4.2 1.2-1.1 3.1-1.1 4.2 0.1l69.4 73.4c1.1 1.2 1.1 3.1-0.1 4.2-0.6 0.6-1.3 0.9-2 0.9z" fill="#330867" p-id="51535"></path><path d="M283.7 281c-0.7 0-1.5-0.3-2.1-0.8-1.2-1.1-1.3-3-0.1-4.2l69.4-73.4c1.1-1.2 3-1.3 4.2-0.1 1.2 1.1 1.3 3 0.1 4.2L285.9 280c-0.6 0.6-1.4 1-2.2 1z" fill="#330867" p-id="51536"></path><path d="M353.1 281.4c-0.8 0-1.6-0.3-2.2-0.9L281.6 207c-1.1-1.2-1.1-3.1 0.1-4.2 1.2-1.1 3.1-1.1 4.2 0.1l69.4 73.4c1.1 1.2 1.1 3.1-0.1 4.2-0.6 0.6-1.3 0.9-2.1 0.9z" fill="#330867" p-id="51537"></path><path d="M206.8 281c-0.7 0-1.5-0.3-2.1-0.8-1.2-1.1-1.3-3-0.1-4.2l69.4-73.4c1.1-1.2 3-1.3 4.2-0.1 1.2 1.1 1.3 3 0.1 4.2L209 280c-0.6 0.6-1.4 1-2.2 1z" fill="#330867" p-id="51538"></path><path d="M276.2 281.4c-0.8 0-1.6-0.3-2.2-0.9L204.6 207c-1.1-1.2-1.1-3.1 0.1-4.2 1.2-1.1 3.1-1.1 4.2 0.1l69.4 73.4c1.1 1.2 1.1 3.1-0.1 4.2-0.6 0.6-1.3 0.9-2 0.9z" fill="#330867" p-id="51539"></path><path d="M129.8 281c-0.7 0-1.5-0.3-2.1-0.8-1.2-1.1-1.3-3-0.1-4.2l69.4-73.4c1.1-1.2 3-1.3 4.2-0.1 1.2 1.1 1.3 3 0.1 4.2L132 280c-0.6 0.6-1.4 1-2.2 1z" fill="#330867" p-id="51540"></path><path d="M199.2 281.4c-0.8 0-1.6-0.3-2.2-0.9L127.7 207c-1.1-1.2-1.1-3.1 0.1-4.2 1.2-1.1 3.1-1.1 4.2 0.1l69.4 73.4c1.1 1.2 1.1 3.1-0.1 4.2-0.6 0.6-1.3 0.9-2.1 0.9z" fill="#330867" p-id="51541"></path><path d="M915.3 287.5H107.4c-5 0-9-4-9-9v-74c0-5 4-9 9-9h807.9c5 0 9 4 9 9v74c0 4.9-4.1 9-9 9z m-798.9-18h789.9v-56H116.4v56z" fill="#330867" p-id="51542"></path><path d="M234.1 479h36.6v36.6h-36.6zM276.8 479h36.6v36.6h-36.6zM234.1 521.3h36.6v36.6h-36.6zM276.8 521.3h36.6v36.6h-36.6z" fill="#FFFFFF" p-id="51543"></path><path d="M357.2 479h36.6v36.6h-36.6zM399.9 479h36.6v36.6h-36.6zM357.2 521.3h36.6v36.6h-36.6zM399.9 521.3h36.6v36.6h-36.6z" fill="#FFFFFF" p-id="51544"></path><path d="M480.4 479H517v36.6h-36.6zM523 479h36.6v36.6H523zM480.4 521.3H517v36.6h-36.6zM523 521.3h36.6v36.6H523z" fill="#FFFFFF" p-id="51545"></path><path d="M234.1 576.7h36.6v36.6h-36.6zM276.8 576.7h36.6v36.6h-36.6zM234.1 619.1h36.6v36.6h-36.6zM276.8 619.1h36.6v36.6h-36.6z" fill="#FFFFFF" p-id="51546"></path><path d="M357.2 576.7h36.6v36.6h-36.6zM399.9 576.7h36.6v36.6h-36.6zM357.2 619.1h36.6v36.6h-36.6zM399.9 619.1h36.6v36.6h-36.6z" fill="#FFFFFF" p-id="51547"></path><path d="M480.4 576.7H517v36.6h-36.6zM523 576.7h36.6v36.6H523zM480.4 619.1H517v36.6h-36.6zM523 619.1h36.6v36.6H523z" fill="#FFFFFF" p-id="51548"></path><path d="M221.2 757.9V712c0-17 13.8-30.8 30.8-30.8s30.8 13.8 30.8 30.8v45.9h-61.6z" fill="#FFFFFF" p-id="51549"></path><path d="M252 684.2c15.3 0 27.8 12.4 27.8 27.8v42.9h-55.6V712c0-15.4 12.4-27.8 27.8-27.8m0-6c-18.6 0-33.8 15.2-33.8 33.8v48.9h67.6V712c0-18.7-15.2-33.8-33.8-33.8z" fill="#330867" p-id="51550"></path><path d="M224.2 747.6h55.6v7.2h-55.6z" fill="#EAB236" p-id="51551"></path><path d="M320.8 757.9V712c0-17 13.8-30.8 30.8-30.8s30.8 13.8 30.8 30.8v45.9h-61.6z" fill="#FFFFFF" p-id="51552"></path><path d="M351.6 684.2c15.3 0 27.8 12.4 27.8 27.8v42.9h-55.6V712c0-15.4 12.4-27.8 27.8-27.8m0-6c-18.6 0-33.8 15.2-33.8 33.8v48.9h67.6V712c0-18.7-15.2-33.8-33.8-33.8z" fill="#330867" p-id="51553"></path><path d="M323.8 747.6h55.6v7.2h-55.6z" fill="#EAB236" p-id="51554"></path><path d="M221.2 864.3v-45.9c0-17 13.8-30.8 30.8-30.8s30.8 13.8 30.8 30.8v45.9h-61.6z" fill="#FFFFFF" p-id="51555"></path><path d="M252 790.6c15.3 0 27.8 12.4 27.8 27.8v42.9h-55.6v-42.9c0-15.3 12.4-27.8 27.8-27.8m0-6c-18.6 0-33.8 15.2-33.8 33.8v48.9h67.6v-48.9c0-18.6-15.2-33.8-33.8-33.8z" fill="#330867" p-id="51556"></path><path d="M224.2 854.1h55.6v7.2h-55.6z" fill="#EAB236" p-id="51557"></path><path d="M320.8 864.3v-45.9c0-17 13.8-30.8 30.8-30.8s30.8 13.8 30.8 30.8v45.9h-61.6z" fill="#FFFFFF" p-id="51558"></path><path d="M351.6 790.6c15.3 0 27.8 12.4 27.8 27.8v42.9h-55.6v-42.9c0-15.3 12.4-27.8 27.8-27.8m0-6c-18.6 0-33.8 15.2-33.8 33.8v48.9h67.6v-48.9c0-18.6-15.2-33.8-33.8-33.8z" fill="#330867" p-id="51559"></path><path d="M323.8 854.1h55.6v7.2h-55.6z" fill="#EAB236" p-id="51560"></path><path d="M420.4 757.9V712c0-17 13.8-30.8 30.8-30.8S482 695 482 711.9v45.9h-61.6z" fill="#FFFFFF" p-id="51561"></path><path d="M451.2 684.2c15.3 0 27.8 12.4 27.8 27.8v42.9h-55.6V712c0-15.4 12.5-27.8 27.8-27.8m0-6c-18.6 0-33.8 15.2-33.8 33.8v48.9H485V712c0-18.7-15.2-33.8-33.8-33.8z" fill="#330867" p-id="51562"></path><path d="M423.4 747.6H479v7.2h-55.6z" fill="#EAB236" p-id="51563"></path><path d="M520 757.9V712c0-17 13.8-30.8 30.8-30.8s30.8 13.8 30.8 30.8v45.9H520z" fill="#FFFFFF" p-id="51564"></path><path d="M550.8 684.2c15.3 0 27.8 12.4 27.8 27.8v42.9H523V712c0-15.4 12.5-27.8 27.8-27.8m0-6c-18.6 0-33.8 15.2-33.8 33.8v48.9h67.6V712c0-18.7-15.2-33.8-33.8-33.8z" fill="#330867" p-id="51565"></path><path d="M523 747.6h55.6v7.2H523z" fill="#EAB236" p-id="51566"></path><path d="M433.2 786.2h131v121.2h-131z" fill="#66C1FF" p-id="51567"></path><path d="M567.2 910.4h-137V783.2h137v127.2z m-131-6h125V789.2h-125v115.2z" fill="#330867" p-id="51568"></path><path d="M466 894.7c-11.2 0-20.3-9.1-20.3-20.2V818c0-11.2 9.1-20.3 20.2-20.3 11.2 0 20.3 9.1 20.3 20.3v56.5c0.1 11.1-9 20.2-20.2 20.2z" fill="#18A3D3" p-id="51569"></path><path d="M534.7 894.7c-11.2 0-20.3-9.1-20.3-20.2V818c0-11.2 9.1-20.3 20.3-20.3 11.2 0 20.2 9.1 20.2 20.3v56.5c0.1 11.1-9 20.2-20.2 20.2z" fill="#18A3D3" p-id="51570"></path><path d="M495.7 786.2h6v119h-6z" fill="#330867" p-id="51571"></path><path d="M330.2 425.5v-57.2c0-8.5 7-15.5 15.5-15.5H448c8.5 0 15.5 7 15.5 15.5v57.2H330.2z" fill="#FFFFFF" p-id="51572"></path><path d="M448 355.9c6.9 0 12.5 5.6 12.5 12.5v54.2H333.2v-54.2c0-6.9 5.6-12.5 12.5-12.5H448m0-6H345.7c-10.2 0-18.5 8.3-18.5 18.5v60.2h139.3v-60.2c0-10.2-8.3-18.5-18.5-18.5z" fill="#330867" p-id="51573"></path><path d="M333.2 409.2h127.3v13.3H333.2z" fill="#EAB236" p-id="51574"></path><path d="M705.5 204.5h74v74h-74z" fill="#330867" p-id="51575"></path><path d="M814.8 924.4H670.2v-57.7c0-5.8 4.7-10.6 10.6-10.6h123.4c5.8 0 10.6 4.7 10.6 10.6v57.7z" fill="#330867" p-id="51576"></path><path d="M360.7 208c-1.3 0-2.5-0.9-2.9-2.2-0.5-1.6 0.5-3.3 2.1-3.7l344.8-97.7c1.6-0.5 3.3 0.5 3.7 2.1 0.5 1.6-0.5 3.3-2.1 3.7l-344.8 97.7c-0.3 0-0.6 0.1-0.8 0.1z" fill="#330867" p-id="51577"></path><path d="M621.3 202.2c-0.7 0-1.5-0.3-2-0.8-1.2-1.1-1.3-3-0.2-4.2l84.2-91.9c1.1-1.2 3-1.3 4.2-0.2 1.2 1.1 1.3 3 0.2 4.2l-84.2 91.9c-0.6 0.7-1.4 1-2.2 1z" fill="#330867" p-id="51578"></path><path d="M891.8 207.6c-0.7 0-1.4-0.3-2-0.8L778.1 105.4c-1.2-1.1-1.3-3-0.2-4.2 1.1-1.2 3-1.3 4.2-0.2l111.6 101.4c1.2 1.1 1.3 3 0.2 4.2-0.5 0.6-1.3 1-2.1 1z" fill="#330867" p-id="51579"></path></svg>