<?xml version="1.0" standalone="no"?><!DOCTYPE svg PUBLIC "-//W3C//DTD SVG 1.1//EN" "http://www.w3.org/Graphics/SVG/1.1/DTD/svg11.dtd"><svg t="1660053205188" class="icon" viewBox="0 0 1024 1024" version="1.1" xmlns="http://www.w3.org/2000/svg" p-id="64144" xmlns:xlink="http://www.w3.org/1999/xlink" width="200" height="200"><defs><style type="text/css">@font-face { font-family: feedback-iconfont; src: url("//at.alicdn.com/t/font_1031158_u69w8yhxdu.woff2?t=1630033759944") format("woff2"), url("//at.alicdn.com/t/font_1031158_u69w8yhxdu.woff?t=1630033759944") format("woff"), url("//at.alicdn.com/t/font_1031158_u69w8yhxdu.ttf?t=1630033759944") format("truetype"); }
</style></defs><path d="M599.72 163.61c-12.32-2.91-22.96 9.13-18.29 20.9 10.95 27.58 15.39 59.06 17.72 86.93 6.7 88.22-70.35 157.46-146.29 192.08-0.3 0.13-0.6 0.27-0.9 0.4-15.57 6.9-10.61 30.14 6.43 30 64.96-0.56 90.38-0.41 155.8 1.99 13.4 0 26.8 2.23 37.97 7.82 36.17 18.33 62.42 47.24 73.73 83.32 9.76 31.14 50.9 35.12 68.04 1.16 20.78-41.15 33.38-87.34 33.38-136.63-0.01-139.92-97.11-257.13-227.59-287.97z" fill="#B4E7B4" p-id="64145"></path><path d="M248.08 858.41h-80.34c-32.45 0-58.85-26.4-58.85-58.85v-223.8c0-32.45 26.4-58.85 58.85-58.85h80.34c32.45 0 58.85 26.4 58.85 58.85v223.79c0.01 32.46-26.4 58.86-58.85 58.86z m-80.34-301.5c-10.39 0-18.85 8.46-18.85 18.85v223.79c0 10.39 8.46 18.85 18.85 18.85h80.34c10.39 0 18.85-8.46 18.85-18.85V575.76c0-10.39-8.46-18.85-18.85-18.85h-80.34z" fill="#004039" p-id="64146"></path><path d="M604.59 602.73H286.94c-11.05 0-20-8.95-20-20s8.95-20 20-20H604.6c11.05 0 20 8.95 20 20s-8.96 20-20.01 20zM547.77 908.21c-13.02 0-25.81-0.44-38.32-1.34-95.32-6.82-174.69-38.32-235.92-93.62-8.2-7.4-8.84-20.05-1.44-28.25s20.05-8.84 28.25-1.44c54.45 49.18 125.76 77.24 211.97 83.41 67.42 4.82 144.18-4.5 216.12-26.25 69.81-21.11 123.66-85.17 149.54-121.49 39.99-56.1 60.91-111.13 60.91-136.5 0-20.9-15.37-24.88-21.98-25.62-13.19-1.48-29.26 5.1-33.34 23.04-7.73 34-25.86 70.4-48.49 97.38-29.1 34.69-63.7 53.03-100.04 53.04H477.32c-11.05 0-20-8.95-20-20s8.95-20 20-20h257.71c30.5 0 54.57-21.07 69.4-38.74 18.74-22.34 33.74-52.45 40.13-80.55 9.1-40.04 45.53-57.44 76.81-53.92 28.63 3.21 57.52 24.67 57.52 65.37 0 38.19-27.46 102.38-68.34 159.72-22.77 31.94-47.89 59.59-74.66 82.16-31.16 26.28-63.42 44.58-95.88 54.4-63.25 19.13-130.17 29.2-192.24 29.2zM188.04 464.04h-0.14c-11.05-0.08-19.94-9.09-19.86-20.14 0.54-78.93 25.37-154.26 71.8-217.85 6.51-8.92 19.03-10.87 27.95-4.36 8.92 6.51 10.87 19.03 4.36 27.95-41.46 56.77-63.62 124.04-64.11 194.53-0.08 11.01-9.02 19.87-20 19.87zM304.28 204.16c-5.44 0-10.87-2.21-14.81-6.56-7.42-8.18-6.81-20.83 1.37-28.25a377.6 377.6 0 0 1 5.17-4.61c8.32-7.27 20.95-6.42 28.22 1.89 7.27 8.32 6.42 20.95-1.89 28.22-1.55 1.36-3.09 2.73-4.62 4.11-3.83 3.49-8.64 5.2-13.44 5.2zM896.4 464.08c-10.98 0-19.92-8.87-20-19.86-0.6-88.78-35.63-172.15-98.63-234.75-63.03-62.63-146.69-97.12-235.55-97.12-55.64 0-110.73 13.95-159.29 40.33-9.71 5.27-21.85 1.68-27.12-8.03-5.27-9.71-1.68-21.85 8.03-27.12 54.41-29.56 116.09-45.18 178.39-45.18 50.3 0 99.11 9.82 145.1 29.18 44.4 18.7 84.32 45.47 118.65 79.57 34.31 34.1 61.34 73.83 80.32 118.1 19.65 45.82 29.78 94.52 30.12 144.76 0.07 11.04-8.82 20.06-19.86 20.13-0.07-0.01-0.12-0.01-0.16-0.01z" fill="#004039" p-id="64147"></path><path d="M646.11 343.78c11.05 0 20-8.95 20-20s-8.95-20-20-20h-54.52l68.66-68.67c7.81-7.81 7.81-20.47 0-28.29s-20.47-7.81-28.28 0l-88.67 88.67-88.95-88.95c-7.81-7.81-20.47-7.81-28.28 0-7.81 7.81-7.81 20.47 0 28.29l68.95 68.95h-54.81c-11.05 0-20 8.95-20 20s8.95 20 20 20h83.09v46.49h-83.09c-11.05 0-20 8.95-20 20s8.95 20 20 20h83.09v61.99c0 11.05 8.95 20 20 20s20-8.95 20-20v-61.99h82.52c11.05 0 20-8.95 20-20s-8.95-20-20-20H563.3v-46.49h82.81z" fill="#004039" p-id="64148"></path></svg>